<svg xmlns="http://www.w3.org/2000/svg" viewBox="0 0 200 220">
<path d="M70 120 L40 210 a6 6 0 006 8h108a6 6 0 006-8L130 120Z" fill="#FFE7EF"/>
<path d="M70 120 L100 210 L130 120Z" fill="#FFE7EF" opacity="0.55"/>

<g stroke="#7CB47E" stroke-width="4"><line x1="100" y1="130" x2="76" y2="74"/><line x1="100" y1="130" x2="100" y2="58"/><line x1="100" y1="130" x2="124" y2="74"/></g>
<circle cx="76" cy="66" r="24" fill="#E85A9B"/><circle cx="100" cy="50" r="27" fill="#FF6B9E"/><circle cx="124" cy="66" r="24" fill="#E85A9B"/>
<circle cx="76" cy="66" r="11" fill="#B22A63"/><circle cx="100" cy="50" r="12" fill="#B22A63"/><circle cx="124" cy="66" r="11" fill="#B22A63"/>
<g fill="#FFFFFF"><circle cx="60" cy="90" r="4"/><circle cx="140" cy="90" r="4"/><circle cx="65" cy="105" r="4"/><circle cx="135" cy="105" r="4"/></g>
</svg>
