<svg xmlns="http://www.w3.org/2000/svg" viewBox="0 0 200 220">
<path d="M70 120 L40 210 a6 6 0 006 8h108a6 6 0 006-8L130 120Z" fill="#F3E9FF"/>
<path d="M70 120 L100 210 L130 120Z" fill="#F3E9FF" opacity="0.55"/>

<g stroke="#7CB47E" stroke-width="4"><line x1="100" y1="130" x2="78" y2="76"/><line x1="100" y1="130" x2="100" y2="62"/><line x1="100" y1="130" x2="122" y2="76"/></g>
<path d="M63 76 C63 56 93 56 93 76 C93 96 86 108 78 114 C70 108 63 96 63 76 Z" fill="#FF8FBE"/>
<path d="M85 62 C85 42 115 42 115 62 C115 82 108 94 100 100 C92 94 85 82 85 62 Z" fill="#E85A9B"/>
<path d="M107 76 C107 56 137 56 137 76 C137 96 130 108 122 114 C114 108 107 96 107 76 Z" fill="#FF8FBE"/>
</svg>
