<svg xmlns="http://www.w3.org/2000/svg" viewBox="0 0 100 100">
<g fill="#FFF6F0" stroke="#E9B8D6" stroke-width="1.5">
<path d="M50 50 L50 8 C58 20 58 38 50 50Z"/>
<path d="M50 50 L50 8 C42 20 42 38 50 50Z" transform="rotate(120 50 50)"/>
<path d="M50 50 L50 8 C58 20 58 38 50 50Z" transform="rotate(120 50 50)"/>
<path d="M50 50 L50 8 C42 20 42 38 50 50Z" transform="rotate(240 50 50)"/>
<path d="M50 50 L50 8 C58 20 58 38 50 50Z" transform="rotate(240 50 50)"/>
<path d="M50 50 L50 8 C42 20 42 38 50 50Z"/>
</g>
<circle cx="50" cy="52" r="8" fill="#FF8FBE"/>
</svg>
