<svg xmlns="http://www.w3.org/2000/svg" viewBox="0 0 200 220">
<path d="M70 120 L40 210 a6 6 0 006 8h108a6 6 0 006-8L130 120Z" fill="#F3EFFF"/>
<path d="M70 120 L100 210 L130 120Z" fill="#F3EFFF" opacity="0.55"/>

<g stroke="#7CB47E" stroke-width="4"><line x1="100" y1="130" x2="82" y2="76"/><line x1="100" y1="130" x2="100" y2="60"/><line x1="100" y1="130" x2="118" y2="76"/></g>
<g fill="#FFFDF8" stroke="#E9DDFA" stroke-width="1.5">
<path d="M100 90 L100 40 C110 55 110 75 100 90Z"/>
<path d="M100 90 L100 40 C90 55 90 75 100 90Z"/>
<path d="M100 90 L100 40 C110 55 110 75 100 90Z" transform="rotate(120 100 65)"/>
<path d="M100 90 L100 40 C90 55 90 75 100 90Z" transform="rotate(120 100 65)"/>
</g>
<circle cx="100" cy="66" r="7" fill="#FF8FBE"/>
</svg>
