<svg xmlns="http://www.w3.org/2000/svg" viewBox="0 0 100 100" shape-rendering="crispEdges">
<rect width="100" height="100" fill="#fff"/>
<g fill="#5A3A55">
<rect x="8" y="8" width="24" height="24"/><rect x="68" y="8" width="24" height="24"/><rect x="8" y="68" width="24" height="24"/>
</g>
<g fill="#fff"><rect x="14" y="14" width="12" height="12"/><rect x="74" y="14" width="12" height="12"/><rect x="14" y="74" width="12" height="12"/></g>
<g fill="#5A3A55">
<rect x="18" y="18" width="4" height="4"/><rect x="78" y="18" width="4" height="4"/><rect x="18" y="78" width="4" height="4"/>
<rect x="40" y="10" width="4" height="4"/><rect x="48" y="10" width="4" height="4"/><rect x="56" y="14" width="4" height="4"/>
<rect x="40" y="20" width="4" height="4"/><rect x="52" y="24" width="4" height="4"/><rect x="60" y="20" width="4" height="4"/>
<rect x="10" y="40" width="4" height="4"/><rect x="18" y="44" width="4" height="4"/><rect x="26" y="40" width="4" height="4"/>
<rect x="40" y="40" width="4" height="4"/><rect x="48" y="44" width="4" height="4"/><rect x="56" y="40" width="4" height="4"/>
<rect x="64" y="48" width="4" height="4"/><rect x="72" y="40" width="4" height="4"/><rect x="80" y="44" width="4" height="4"/>
<rect x="88" y="40" width="4" height="4"/><rect x="40" y="52" width="4" height="4"/><rect x="48" y="56" width="4" height="4"/>
<rect x="56" y="52" width="4" height="4"/><rect x="64" y="60" width="4" height="4"/><rect x="72" y="56" width="4" height="4"/>
<rect x="80" y="60" width="4" height="4"/><rect x="10" y="56" width="4" height="4"/><rect x="18" y="60" width="4" height="4"/>
<rect x="26" y="56" width="4" height="4"/><rect x="40" y="68" width="4" height="4"/><rect x="48" y="72" width="4" height="4"/>
<rect x="56" y="68" width="4" height="4"/><rect x="64" y="76" width="4" height="4"/><rect x="72" y="72" width="4" height="4"/>
<rect x="80" y="76" width="4" height="4"/><rect x="88" y="72" width="4" height="4"/><rect x="40" y="84" width="4" height="4"/>
<rect x="48" y="88" width="4" height="4"/><rect x="56" y="84" width="4" height="4"/><rect x="64" y="88" width="4" height="4"/>
<rect x="72" y="84" width="4" height="4"/><rect x="80" y="88" width="4" height="4"/>
</g>
</svg>
