<svg xmlns="http://www.w3.org/2000/svg" viewBox="0 0 100 100">
<circle cx="50" cy="50" r="34" fill="#FFC4DD"/>
<path d="M50 50 C 60 30, 75 35, 72 50 C 75 65, 60 70, 50 50" fill="#FF8FBE"/>
<path d="M50 50 C 40 30, 25 35, 28 50 C 25 65, 40 70, 50 50" fill="#FF8FBE"/>
<path d="M50 50 C 65 40, 70 60, 55 68 C 45 72, 35 60, 50 50" fill="#E85A9B"/>
<path d="M50 50 C 35 40, 30 60, 45 68 C 55 72, 65 60, 50 50" fill="#E85A9B"/>
<circle cx="50" cy="50" r="15" fill="#D9427F"/>
<circle cx="50" cy="50" r="7" fill="#B22A63"/>
</svg>
