<svg xmlns="http://www.w3.org/2000/svg" viewBox="0 0 32 32" fill="none">
<path d="M16 3C9 3 3.3 8.6 3.3 15.5c0 2.4.7 4.7 1.9 6.6L3 29l7.1-2.1c1.8 1 3.8 1.5 5.9 1.5 7 0 12.7-5.6 12.7-12.5S23 3 16 3Z" fill="#fff"/>
<path d="M22.4 19c-.3.9-1.7 1.7-2.4 1.8-.6.1-1.4.1-2.3-.2-.5-.2-1.2-.4-2-.8-3.5-1.5-5.8-5-6-5.3-.2-.3-1.4-1.9-1.4-3.6s.9-2.6 1.3-2.9c.3-.3.7-.4 1-.4h.7c.2 0 .5 0 .8.6.3.7 1 2.3 1.1 2.5.1.2.2.4 0 .7-.1.3-.2.4-.4.6-.2.2-.4.5-.6.7-.2.2-.4.4-.2.8.2.4 1 1.6 2.1 2.6 1.5 1.3 2.7 1.7 3.1 1.9.4.2.6.1.8-.1.2-.2.9-1 1.2-1.4.3-.4.5-.3.8-.2.3.1 2 1 2.4 1.1.4.2.6.3.7.4.1.2.1.9-.2 1.8Z" fill="#25D366"/>
</svg>
